<?xml version="1.0" encoding="UTF-8"?>
<svg xmlns="http://www.w3.org/2000/svg" viewBox="0 0 636 75">
  <path fill="#00a4c6" d="M69.71,18.64h4.79c6.45,0,11.67,5.18,11.67,11.59v41.03c0,1.44-1.16,2.59-2.61,2.59h-3.04c-7.33,0-13.2-5.9-13.2-13.1V21.02c-.07-1.3,1.02-2.38,2.39-2.38M130.12,53.84v-2.52c-2.03-.79-4.86-1.44-7.68-1.44-5.66,0-8.92,2.66-8.92,6.84v.15c0,3.74,2.9,6.05,6.88,6.05,5.74,0,9.72-3.6,9.72-9.07ZM94.8,58.01v-.22c0-11.52,8.71-17.34,21.76-17.34,5.14,0,10.15.93,13.34,2.16v-.94c0-5.83-3.63-9.07-11.09-9.07-3.49,0-6.53.43-9.5,1.15-3.41.87-6.82-1.15-7.84-4.53l-1.88-6.48c-.15-.36.07-.79.43-.94,6.09-2.37,12.62-4.03,21.83-4.03,9.94,0,16.75,2.37,21.17,6.69,4.21,4.11,5.95,9.79,5.95,17.56v29.23c0,1.37-1.16,2.52-2.54,2.52h-10.87c-3.27,0-5.88-2.59-5.88-5.83-3.91,4.17-9.13,7.05-16.46,7.05-10.44,0-18.42-6.12-18.42-16.99ZM83.93,3.95V1.44c-2.03-.79-4.86-1.44-7.69-1.44-5.65,0-8.92,2.66-8.92,6.83v.21c0,3.75,2.9,6.05,6.89,6.05,5.73-.07,9.72-3.6,9.72-9.14ZM2.57,18.64h7.32c5.66,0,10.66,3.6,12.47,8.92l6.52,19.58c.36,1.15,2.03,1.15,2.47,0l8.56-25.7c.58-1.65,2.18-2.81,3.92-2.81h11.02c2.9,0,4.93,2.95,3.84,5.62l-19.14,47.86c-.51,1.23-1.67,2.02-3.05,2.02-9.35,0-17.84-5.69-21.24-14.32L.18,22.02c-.65-1.59.58-3.39,2.4-3.39Z"/>
</svg>
